<?xml version="1.0" encoding="utf-8"?>
<!-- Designed by Vexels.com - 2020 All Rights Reserved - https://vexels.com/terms-and-conditions/  -->
<svg version="1.1" id="Layer_1" xmlns="http://www.w3.org/2000/svg" xmlns:xlink="http://www.w3.org/1999/xlink" x="0px" y="0px"
	 viewBox="0 0 1200 1200" enable-background="new 0 0 1200 1200" xml:space="preserve">
<g>
	<path fill="#08175B" d="M1072.662,106.196H127.338C84.692,106.196,50,140.889,50,183.528v640.85
		c0,42.639,34.692,77.332,77.338,77.332h297.29h342.959h305.076c42.645,0,77.338-34.692,77.338-77.332v-640.85
		C1150,140.889,1115.308,106.196,1072.662,106.196z M1089.044,817.431c0,9.03-7.346,16.376-16.382,16.376H724.917H600.104h-16.188
		H135.74c-9.036,0-16.382-7.346-16.382-16.376v-640.85c0-9.03,7.346-16.376,16.382-16.376h347.745h100.431h16.188h472.558
		c9.036,0,16.382,7.346,16.382,16.376V817.431z"/>
	<path fill="#08175B" d="M312.05,1032.848c-16.834,0-30.478,13.644-30.478,30.478s13.644,30.478,30.478,30.478h143.055h282.003
		h143.055c16.834,0,30.478-13.644,30.478-30.478s-13.644-30.478-30.478-30.478H767.586H424.627H312.05z"/>
	<path fill="#FF7F29" d="M1072.662,160.205H600.104h-16.188H483.485H135.74c-9.036,0-16.382,7.346-16.382,16.376v640.85
		c0,9.03,7.346,16.376,16.382,16.376h448.176h16.188h124.813h347.745c9.036,0,16.382-7.346,16.382-16.376v-640.85
		C1089.044,167.551,1081.699,160.205,1072.662,160.205z M934.158,582.949c0,14.031-11.373,25.405-25.403,25.405H306.978
		c-14.031,0-25.406-11.374-25.406-25.405V546.26c0-14.031,11.376-25.405,25.406-25.405h601.777
		c14.031,0,25.403,11.374,25.403,25.405V582.949z M934.158,383.741c0,14.031-11.373,25.405-25.403,25.405H306.978
		c-14.031,0-25.406-11.374-25.406-25.405v-36.689c0-14.031,11.376-25.405,25.406-25.405h601.777
		c14.031,0,25.403,11.374,25.403,25.405V383.741z"/>
	<rect x="424.627" y="901.71" fill="#ED2F2F" width="342.959" height="131.138"/>
	<path fill="#ED2F2F" d="M908.755,321.647H306.978c-14.031,0-25.406,11.374-25.406,25.405v36.689
		c0,14.031,11.376,25.405,25.406,25.405h601.777c14.031,0,25.403-11.374,25.403-25.405v-36.689
		C934.158,333.021,922.785,321.647,908.755,321.647z"/>
	<path fill="#ED2F2F" d="M908.755,520.856H306.978c-14.031,0-25.406,11.374-25.406,25.405v36.689
		c0,14.031,11.376,25.405,25.406,25.405h601.777c14.031,0,25.403-11.374,25.403-25.405V546.26
		C934.158,532.23,922.785,520.856,908.755,520.856z"/>
</g>
</svg>
